<svg width="19" height="19" viewBox="0 0 19 19" fill="none" xmlns="http://www.w3.org/2000/svg">
<path d="M18.2578 1.56214C17.8479 1.56214 17.5156 1.88742 17.5156 2.28871V4.30626C15.7881 1.65397 12.7712 0 9.5 0C6.96246 0 4.57681 0.967398 2.78246 2.72393C0.988186 4.48053 0 6.816 0 9.30016C0 11.7843 0.988186 14.1198 2.78246 15.8764C4.57681 17.6329 6.96246 18.6003 9.5 18.6003C9.50627 18.6003 9.51232 18.5995 9.51855 18.5994C9.52479 18.5995 9.53084 18.6003 9.53711 18.6003C9.80459 18.6003 10.0747 18.5893 10.34 18.5675C10.7485 18.534 11.0519 18.1827 11.0177 17.7829C10.9835 17.383 10.6251 17.0858 10.2162 17.1195C9.99189 17.1378 9.76344 17.1472 9.53711 17.1472C9.53084 17.1472 9.52479 17.1479 9.51855 17.1481C9.51232 17.1479 9.50627 17.1472 9.5 17.1472C5.08016 17.1472 1.48438 13.627 1.48438 9.30016C1.48438 4.97329 5.08016 1.45315 9.5 1.45315C12.3484 1.45315 14.9683 2.93947 16.4 5.304H14.3592C13.9493 5.304 13.617 5.62928 13.617 6.03057C13.617 6.43186 13.9493 6.75714 14.3592 6.75714H16.625C17.077 6.75714 17.4999 6.63279 17.8599 6.41736C17.883 6.40443 17.9053 6.39051 17.9265 6.37551C18.5725 5.95951 19 5.24394 19 4.43211V2.28871C19 1.88742 18.6677 1.56214 18.2578 1.56214Z" fill="#585858"/>
</svg>
