<svg xmlns="http://www.w3.org/2000/svg" viewBox="0 0 198.25 198.25"><defs><style>.cls-1{fill:#85ee8a;}.cls-2{fill:#2235e4;}</style></defs><g id="Layer_2" data-name="Layer 2"><g id="Layer_1-2" data-name="Layer 1"><path class="cls-1" d="M174.42,34.66a99.14,99.14,0,1,0,23.83,64.47A98.9,98.9,0,0,0,174.42,34.66ZM146.65,145.54a35.54,35.54,0,0,1-10,12.34,50.59,50.59,0,0,1-15.94,8.37,68.54,68.54,0,0,1-21.12,2.94,75.32,75.32,0,0,1-20.9-2.8,77.08,77.08,0,0,1-16.41-6.6l-5.95,6H49L47.9,121.62h7.41a113.33,113.33,0,0,0,6.38,13.3,64.5,64.5,0,0,0,9,12.52,46.19,46.19,0,0,0,11.76,9.42,30.72,30.72,0,0,0,15.21,3.62q11.72,0,18-5.73a18.79,18.79,0,0,0,6.25-14.45,15.71,15.71,0,0,0-5.3-12q-5.31-4.88-16.42-8.42-7.25-2.34-13.31-4.33t-11.42-4.07q-12.33-4.92-18.31-14.06a36.46,36.46,0,0,1-6-20.45,32,32,0,0,1,3.1-13.76,36.58,36.58,0,0,1,9.05-11.87,44.55,44.55,0,0,1,14.56-8,58.08,58.08,0,0,1,19.3-3.11A62,62,0,0,1,116.15,43a78,78,0,0,1,14,5.69l5.25-5.18h7.5l.69,41.71h-7.41q-2.58-6.73-6.07-13.77a60.23,60.23,0,0,0-7.37-11.71,33.58,33.58,0,0,0-9.74-8,26.89,26.89,0,0,0-12.93-3q-9.3,0-15.21,5.27a16.78,16.78,0,0,0-5.9,13,15.48,15.48,0,0,0,5.13,12q5.13,4.66,16,8.2,6.38,2.16,13,4.31t11.8,4.14q12.5,4.84,19,13.34t6.51,21.09A34,34,0,0,1,146.65,145.54Z"/><path class="cls-2" d="M124.85,95.75q-5.17-2-11.8-4.14T100,87.3q-10.86-3.54-16-8.2a15.48,15.48,0,0,1-5.13-12,16.78,16.78,0,0,1,5.9-13Q90.73,48.81,100,48.8a26.89,26.89,0,0,1,12.93,3,33.58,33.58,0,0,1,9.74,8,60.23,60.23,0,0,1,7.37,11.71q3.48,7,6.07,13.77h7.41l-.69-41.71h-7.5l-5.25,5.18a78,78,0,0,0-14-5.69A62,62,0,0,0,97.1,40.18a58.08,58.08,0,0,0-19.3,3.11,44.55,44.55,0,0,0-14.56,8,36.58,36.58,0,0,0-9.05,11.87,32,32,0,0,0-3.1,13.76,36.46,36.46,0,0,0,6,20.45q6,9.15,18.31,14.06,5.34,2.08,11.42,4.07t13.31,4.33q11.11,3.56,16.42,8.42a15.71,15.71,0,0,1,5.3,12,18.79,18.79,0,0,1-6.25,14.45q-6.25,5.73-18,5.73a30.72,30.72,0,0,1-15.21-3.62,46.19,46.19,0,0,1-11.76-9.42,64.5,64.5,0,0,1-9-12.52,113.33,113.33,0,0,1-6.38-13.3H47.9L49,165.83h7.32l5.95-6a77.08,77.08,0,0,0,16.41,6.6,75.32,75.32,0,0,0,20.9,2.8,68.54,68.54,0,0,0,21.12-2.94,50.59,50.59,0,0,0,15.94-8.37,35.54,35.54,0,0,0,10-12.34,34,34,0,0,0,3.71-15.36q0-12.59-6.51-21.09T124.85,95.75Z"/><circle class="cls-2" cx="181.75" cy="160.52" r="11.4"/></g></g></svg>